<svg width="106.000000" height="106.000000" viewBox="0 0 106 106" fill="none" xmlns="http://www.w3.org/2000/svg" xmlns:xlink="http://www.w3.org/1999/xlink">
	<desc>
			Created with Pixso.
	</desc>
	<defs/>
	<circle id="Mask" cx="53.000000" cy="53.000000" r="53.000000" fill="#36536B" fill-opacity="1.000000"/>
	<circle id="Mask" cx="53.000000" cy="53.000000" r="53.000000" stroke="#979797" stroke-opacity="0" stroke-width="0.000000"/>
	<mask id="mask0_1774" mask-type="alpha" maskUnits="userSpaceOnUse" x="0.000000" y="0.000000" width="106.000000" height="106.000000">
		<circle id="Mask" cx="53.000000" cy="53.000000" r="53.000000" fill="#36536B" fill-opacity="1.000000"/>
		<circle id="Mask" cx="53.000000" cy="53.000000" r="53.000000" stroke="#979797" stroke-opacity="0" stroke-width="0.000000"/>
	</mask>
	<path id="Combined Shape" d="M72.948 45.3906L72.948 45.7295C72.948 46.2471 72.5282 46.667 72.0105 46.667L33.9375 46.667C33.4198 46.667 33 46.2471 33 45.7295L33 45.3906C33 42.4131 35.4135 40 38.3906 40L67.5574 40C70.5345 40 72.948 42.4131 72.948 45.3906ZM33 61.2227L33 50.8848C33 50.3672 33.4198 49.9473 33.9375 49.9473L72.0105 49.9473C72.5282 49.9473 72.948 50.3672 72.948 50.8848L72.948 61.2227C72.948 64.2002 70.5345 66.6133 67.5574 66.6133L38.3906 66.6133C35.4135 66.6133 33 64.2002 33 61.2227ZM40.474 57.4473L42.974 57.4473C43.8801 57.4473 44.6146 56.7129 44.6146 55.8066C44.6146 54.9004 43.8801 54.166 42.974 54.166L40.474 54.166C39.5679 54.166 38.8334 54.9004 38.8334 55.8066C38.8334 56.7129 39.5679 57.4473 40.474 57.4473Z" clip-rule="evenodd" fill="#FFFFFF" fill-opacity="1.000000" fill-rule="evenodd"/>
</svg>
