<svg width="106.000000" height="106.000000" viewBox="0 0 106 106" fill="none" xmlns="http://www.w3.org/2000/svg" xmlns:xlink="http://www.w3.org/1999/xlink">
	<desc>
			Created with Pixso.
	</desc>
	<defs/>
	<circle id="Mask" cx="53.000000" cy="53.000000" r="53.000000" fill="#36536B" fill-opacity="1.000000"/>
	<circle id="Mask" cx="53.000000" cy="53.000000" r="53.000000" stroke="#979797" stroke-opacity="0" stroke-width="0.000000"/>
	<mask id="mask0_1745" mask-type="alpha" maskUnits="userSpaceOnUse" x="0.000000" y="0.000000" width="106.000000" height="106.000000">
		<circle id="Mask" cx="53.000000" cy="53.000000" r="53.000000" fill="#36536B" fill-opacity="1.000000"/>
		<circle id="Mask" cx="53.000000" cy="53.000000" r="53.000000" stroke="#979797" stroke-opacity="0" stroke-width="0.000000"/>
	</mask>
	<path id="Combined Shape" d="M59.9937 31.3799L56.8907 40.4238L39.2178 40.4238L36.1144 31.3799L41.2573 28L44.6558 30.2334L48.0542 28L51.4526 30.2334L54.8511 28L59.9937 31.3799ZM39.801 43.3359L56.3074 43.3359L56.3074 46.249L39.801 46.249L39.801 43.3359ZM62.3518 60.2314L54.9481 60.2314L54.9481 68.9697L52.0352 68.9697L52.0352 77.5518C51.3635 77.6553 50.6805 77.709 49.991 77.709L46.1174 77.709C41.5925 77.709 37.4493 75.4248 35.0339 71.5986C33.6832 69.46 33 67.041 33 64.6094C33 62.6914 33.4249 60.7666 34.2826 58.9648L38.9508 49.1621L57.1577 49.1621L61.8258 58.9648C62.0242 59.3818 62.199 59.8037 62.3518 60.2314ZM50.9384 65.8018C51.238 65.5635 51.4796 65.2578 51.6631 64.8848C51.8463 64.5127 51.9381 64.0615 51.9381 63.5312C51.9381 63.082 51.871 62.7012 51.7367 62.3857C51.6028 62.0723 51.4102 61.8047 51.1599 61.584C50.9095 61.3643 50.6077 61.1738 50.2543 61.0117C49.9008 60.8496 49.5052 60.7021 49.0671 60.5674C48.9686 60.54 48.8745 60.5107 48.7854 60.4795C48.6959 60.4482 48.611 60.4238 48.5302 60.4053L48.5302 59.1924C48.7809 59.2383 49.0289 59.3027 49.275 59.3877C49.5208 59.4736 49.7422 59.5654 49.9391 59.6641C50.1715 59.7725 50.3862 59.8887 50.583 60.0146L51.7102 57.8457C51.5221 57.7559 51.3165 57.6592 51.0928 57.5557C50.8694 57.4521 50.63 57.3535 50.3752 57.2588C50.12 57.165 49.8541 57.082 49.5769 57.0098C49.2993 56.9385 49.0133 56.8838 48.7183 56.8486L48.7183 55.4736L47.645 55.4736L47.645 56.835C47.2244 56.8799 46.8289 56.9824 46.4575 57.1445C46.0863 57.3066 45.7621 57.5215 45.4849 57.791C45.2075 58.0605 44.9888 58.3818 44.8275 58.7549C44.6667 59.1279 44.5859 59.5566 44.5859 60.041C44.5859 60.3916 44.6331 60.7021 44.7271 60.9717C44.8212 61.2402 44.9664 61.4814 45.1632 61.6924C45.3596 61.9033 45.6104 62.0918 45.9146 62.2578C46.2183 62.4238 46.5804 62.5791 47.0011 62.7227C47.2783 62.8213 47.5555 62.9072 47.8328 62.9785L47.8328 64.1641C47.5107 64.1191 47.1956 64.041 46.8868 63.9287C46.5781 63.8164 46.3077 63.7021 46.0753 63.585C45.7981 63.4502 45.5387 63.3066 45.2971 63.1543L44.1703 65.458C44.6531 65.7461 45.1985 65.9834 45.8068 66.1729C46.4147 66.3613 47.0276 66.4824 47.645 66.5361L47.645 68.1934L48.7179 68.1934L48.7179 66.5635C49.1294 66.5361 49.5276 66.4619 49.9121 66.3408C50.2968 66.2197 50.6388 66.04 50.9384 65.8018ZM47.4304 59.9404C47.3408 59.8545 47.2961 59.7451 47.2961 59.6104C47.2961 59.3496 47.4751 59.1973 47.8328 59.1523L47.8328 60.1758C47.6537 60.1045 47.5199 60.0264 47.4304 59.9404ZM57.8612 63.1445L72.9109 63.1445L72.9109 68.9697L57.8612 68.9697L57.8612 63.1445ZM48.5302 63.208C48.7092 63.2803 48.8522 63.3633 48.9595 63.457C49.0671 63.5518 49.1207 63.6611 49.1207 63.7871C49.1207 63.9043 49.0759 63.998 48.9865 64.0703C48.897 64.1416 48.7452 64.1875 48.5302 64.2051L48.5302 63.208ZM54.9482 71.8828L69.9983 71.8828L69.9983 77.709L54.9482 77.709L54.9482 71.8828Z" clip-rule="evenodd" fill="#EDF3F8" fill-opacity="1.000000" fill-rule="evenodd"/>
</svg>
